# xmcd
#
# Track frame offsets:
#	150
#	20232
#	37894
#	54412
#	79209
#	99998
#	134423
#	152294
#	172079
#
# Disc length: 2577 seconds
#
# Revision: 1
# Processed by: cddbd v1.5.2PL0 Copyright (c) Steve Scherf et al.
# Submitted via: audiograbber 1.83.01
#
DISCID=6a0a0f09
DTITLE=Erja Lyytinen - Forbidden Fruit
DYEAR=2013
DGENRE=Blues
TTITLE0=Joyful Misery
TTITLE1=Hold On Together
TTITLE2=At Least We Still Fight
TTITLE3=Forbidden Fruit
TTITLE4=Death Letter
TTITLE5=Change Of Season
TTITLE6=Jealousy
TTITLE7=Press My Button
TTITLE8=Things About Coming My Way
EXTD=
EXTT0=
EXTT1=
EXTT2=
EXTT3=
EXTT4=
EXTT5=
EXTT6=
EXTT7=
EXTT8=
PLAYORDER=
